<?xml version="1.0" encoding="utf-8"?>
<!-- Generator: Adobe Illustrator 24.0.1, SVG Export Plug-In . SVG Version: 6.00 Build 0)  -->
<svg version="1.1" id="Layer_1" xmlns="http://www.w3.org/2000/svg" xmlns:xlink="http://www.w3.org/1999/xlink" x="0px" y="0px"
	 viewBox="0 0 96 96" style="enable-background:new 0 0 96 96;" xml:space="preserve">
<style type="text/css">
	.st0{fill:#745A82;}
</style>
<title>Artboard 168</title>
<path class="st0" d="M88,0H24C15.2,0,8,7.2,8,16v4H4c-2.2,0-4,1.8-4,4s1.8,4,4,4h4v16H4c-2.2,0-4,1.8-4,4s1.8,4,4,4h4v16H4
	c-2.2,0-4,1.8-4,4s1.8,4,4,4h4v4c0,8.8,7.2,16,16,16h64c4.4,0,8-3.6,8-8V8C96,3.6,92.4,0,88,0z M88,88H24c-4.4,0-8-3.6-8-8v-4h4
	c2.2,0,4-1.8,4-4s-1.8-4-4-4h-4V52h4c2.2,0,4-1.8,4-4s-1.8-4-4-4h-4V28h4c2.2,0,4-1.8,4-4s-1.8-4-4-4h-4v-4c0-4.4,3.6-8,8-8h64V88z"
	/>
<path class="st0" d="M36,76c2.2,0,4-1.8,4-4v-4c0-8.8,7.2-16,16-16s16,7.2,16,16v4c0,2.2,1.8,4,4,4s4-1.8,4-4v-4
	c0-8.7-4.8-16.8-12.4-21c6.1-6.4,5.9-16.5-0.5-22.6s-16.5-5.9-22.6,0.5c-5.9,6.2-5.9,15.9,0,22.1C36.8,51.2,32,59.3,32,68v4
	C32,74.2,33.8,76,36,76z M48,36c0-4.4,3.6-8,8-8s8,3.6,8,8s-3.6,8-8,8S48,40.4,48,36z"/>
</svg>
