<?xml version="1.0" encoding="utf-8"?>
<!-- Generator: Adobe Illustrator 24.0.1, SVG Export Plug-In . SVG Version: 6.00 Build 0)  -->
<svg version="1.1" id="Layer_1" xmlns="http://www.w3.org/2000/svg" xmlns:xlink="http://www.w3.org/1999/xlink" x="0px" y="0px" 
	 viewBox="0 0 96 96" style="enable-background:new 0 0 96 96;" xml:space="preserve">
<style type="text/css">
	.st0{fill:#745A82;}
</style>
<g>
	<path class="st0" d="M16,96h20.8c1.7,0,3-1.5,3-3.5V63.3h16.4v29.2c0,2,1.3,3.5,3,3.5H80c3.3,0,6-3.1,6-7V43.3c0-2.9-1-5.8-2.9-7.8
		L53.4,2.6c-3.1-3.5-7.8-3.5-10.9,0L12.9,35.5c-1.8,2.1-2.9,4.9-2.9,7.8V89C10,92.9,12.7,96,16,96z M16,43.3c0-1,0.4-2.1,1-2.8
		L46.7,7.6c0.7-0.8,1.8-0.8,2.5,0l29.7,32.9c0.6,0.7,1,1.7,1,2.8V89H62.2V59.8c0-2-1.3-3.5-3-3.5H36.8c-1.7,0-3,1.5-3,3.5V89H16
		V43.3z"/>
</g>
</svg>
