<?xml version="1.0" encoding="utf-8"?>
<!-- Generator: Adobe Illustrator 24.0.1, SVG Export Plug-In . SVG Version: 6.00 Build 0)  -->
<svg version="1.1" id="Layer_1" xmlns="http://www.w3.org/2000/svg" xmlns:xlink="http://www.w3.org/1999/xlink" x="0px" y="0px"
	 viewBox="0 0 96 96" style="enable-background:new 0 0 96 96;" xml:space="preserve">
<style type="text/css">
	.st0{fill-rule:evenodd;clip-rule:evenodd;fill:#7D5984;}
</style>
<g>
	<path class="st0" d="M48,15.7H7.8c-0.7,0-0.2,0-0.3,0c-1,0-1.9,0-3-0.4c-2.1-0.8-3.4-2.6-4.1-4.6C0.1,9.7,0,8.8,0,7.8
		S0.1,5.9,0.4,5c0.6-2.1,2-3.8,4.1-4.6C5.6,0,6.5,0,7.5,0c0.2,0-0.4,0,0.3,0h80.3c0.7,0,0.2,0,0.3,0c1,0,1.9,0,3,0.4
		C93.6,1.2,94.9,3,95.6,5C95.9,5.9,96,6.9,96,7.8s-0.1,1.9-0.4,2.8c-0.6,2.1-2,3.8-4.1,4.6c-1.1,0.4-2,0.4-3,0.4c-0.2,0,0.4,0-0.3,0
		H48L48,15.7z M7.8,80.3h80.3c0.7,0,0.2,0,0.3,0c1,0,1.9,0,3,0.4c2.1,0.8,3.4,2.6,4.1,4.6c0.3,0.9,0.4,1.8,0.4,2.8
		c0,0.9-0.1,1.9-0.4,2.8c-0.6,2.1-2,3.8-4.1,4.6c-1.1,0.4-2,0.4-3,0.4c-0.2,0,0.4,0-0.3,0H7.8c-0.7,0-0.2,0-0.3,0c-1,0-1.9,0-3-0.4
		C2.4,94.8,1.1,93,0.4,91C0.1,90.1,0,89.1,0,88.2c0-0.9,0.1-1.9,0.4-2.8c0.6-2.1,2-3.8,4.1-4.6c1.1-0.4,2-0.4,3-0.4
		C7.7,80.3,7.1,80.3,7.8,80.3L7.8,80.3z M48,55.8H7.8c-0.7,0-0.2,0-0.3,0c-1,0-1.9,0-3-0.4c-2.1-0.8-3.4-2.6-4.1-4.6
		C0.1,49.9,0,48.9,0,48c0-0.9,0.1-1.9,0.4-2.8c0.6-2.1,2-3.8,4.1-4.6c1.1-0.4,2-0.4,3-0.4c0.2,0-0.4,0,0.3,0h80.3c0.7,0,0.2,0,0.3,0
		c1,0,1.9,0,3,0.4c2.1,0.8,3.4,2.6,4.1,4.6c0.3,0.9,0.4,1.8,0.4,2.8c0,0.9-0.1,1.9-0.4,2.8c-0.6,2.1-2,3.8-4.1,4.6
		c-1.1,0.4-2,0.4-3,0.4c-0.2,0,0.4,0-0.3,0H48L48,55.8z"/>
</g>
</svg>
