<?xml version="1.0" encoding="utf-8"?>
<!-- Generator: Adobe Illustrator 24.0.1, SVG Export Plug-In . SVG Version: 6.00 Build 0)  -->
<svg version="1.1" id="Layer_1" xmlns="http://www.w3.org/2000/svg" xmlns:xlink="http://www.w3.org/1999/xlink" x="0px" y="0px"
	 viewBox="0 0 80 85.5" style="enable-background:new 0 0 80 85.5;" xml:space="preserve">
<style type="text/css">
	.st0{fill:#7D5984;}
</style>
<g>
	<g>
		<path class="st0" d="M39.6,74.4c-9.4-7.3-14.7-18.1-14.7-29.5s5.4-22.2,14.7-29.5l0.9-0.6l0.9,0.6C50.7,22.7,56,33.4,56,44.9
			c0,11.5-5.4,22.2-14.7,29.5L40.4,75L39.6,74.4z M40.4,18.5c-8,6.6-12.6,16.2-12.6,26.4c0,10.1,4.6,19.7,12.6,26.4
			c8-6.7,12.6-16.2,12.6-26.4C53,34.8,48.4,25.2,40.4,18.5z"/>
		<path class="st0" d="M40.4,73.8l-0.3-0.2C31,66.5,25.8,56.1,25.8,44.9S31,23.3,40.1,16.2l0.3-0.2l0.3,0.2
			C49.8,23.3,55,33.7,55,44.9s-5.2,21.6-14.3,28.7L40.4,73.8z M40.4,17.2c-8.7,6.9-13.6,16.9-13.6,27.7c0,10.7,5,20.8,13.6,27.7
			C49.1,65.7,54,55.7,54,44.9C54,34.1,49,24.1,40.4,17.2z"/>
	</g>
	<g>
		<path class="st0" d="M43.7,74.8c-1.1,0-2.3-0.1-3.4-0.2l-1.3,0v-1.3c-1-9.4,2.5-18.8,9.6-25.6c6.3-6,14.6-9.3,23.4-9.3
			c1.2,0,2.3,0.1,3.5,0.2h1.3v1.3c1,9.4-2.5,18.8-9.6,25.6C60.9,71.5,52.6,74.8,43.7,74.8z M41.9,71.7c0.6,0,1.3,0.1,1.9,0.1
			c8,0,15.6-3,21.4-8.4c6.1-5.8,9.3-13.7,8.9-21.8c-0.6,0-1.3-0.1-1.9-0.1c-8,0-15.6,3-21.4,8.5C44.6,55.7,41.4,63.6,41.9,71.7z"/>
		<path class="st0" d="M43.7,73.8c-1.1,0-2.2-0.1-3.3-0.2H40v-0.4C39,64,42.4,55,49.3,48.4c6.9-6.5,16.4-9.8,26.1-8.8h0.4V40
			c1,9.2-2.4,18.2-9.3,24.8C60.4,70.6,52.3,73.8,43.7,73.8z M41,72.7c9.3,0.8,18.3-2.4,24.9-8.6s9.9-14.8,9.1-23.5
			c-9.3-0.8-18.3,2.4-24.9,8.6l0,0C43.5,55.4,40.2,63.9,41,72.7z"/>
	</g>
	<g>
		<path class="st0" d="M37,74.8c-8.9,0-17.2-3.3-23.5-9.3c-7.1-6.7-10.6-16-9.6-25.6v-1.3h1.4c1-0.1,2.1-0.1,3.2-0.1
			c8.9,0,17.3,3.3,23.6,9.2c7.1,6.7,10.6,16,9.6,25.6v1.3h-1.3C39.2,74.8,38.1,74.8,37,74.8z M6.7,41.5c-0.5,8.2,2.7,16.1,8.9,21.8
			c5.8,5.4,13.4,8.4,21.4,8.4c0,0,0,0,0,0c0.6,0,1.3,0,1.9-0.1c0.5-8.2-2.7-16.1-8.9-21.8c-5.7-5.5-13.3-8.5-21.3-8.5
			C8,41.5,7.4,41.5,6.7,41.5z"/>
		<path class="st0" d="M37,73.8c-8.5,0-16.7-3.2-22.8-9C7.3,58.3,3.9,49.2,4.9,40v-0.4h0.4c9.7-0.9,19.2,2.3,26.1,8.8l0,0
			c6.9,6.5,10.3,15.6,9.3,24.8v0.4h-0.4C39.2,73.8,38.1,73.8,37,73.8z M5.8,40.6C5,49.4,8.3,57.9,14.9,64.1
			c6.6,6.2,15.6,9.4,24.9,8.6c0.8-8.8-2.5-17.3-9.1-23.5l0,0C24.1,42.9,15.1,39.8,5.8,40.6z"/>
	</g>
	<g>
		<path class="st0" d="M22.5,82.7c-7.3,0-14.3-3.1-19-8.5l-1-1l1-1c4.6-5.4,11.6-8.5,18.9-8.5s14.3,3.1,19,8.5l1,1l-1,1
			C36.8,79.6,29.9,82.7,22.5,82.7z M6.8,73.1c4.1,4.1,9.7,6.5,15.7,6.5c6.1,0,11.8-2.4,15.7-6.5c-4.1-4.1-9.7-6.5-15.7-6.5
			C16.6,66.6,10.9,68.9,6.8,73.1z"/>
		<path class="st0" d="M22.5,81.7c-7.1,0-13.7-3-18.2-8.2L4,73.2l0.3-0.3c4.5-5.2,11.1-8.2,18.2-8.2s13.7,3,18.2,8.2l0.3,0.3
			l-0.3,0.3C36.2,78.7,29.6,81.7,22.5,81.7z M5.4,73.1c4.3,4.8,10.5,7.5,17.1,7.5s12.9-2.7,17.1-7.5c-4.3-4.8-10.5-7.5-17.1-7.5
			S9.7,68.4,5.4,73.1z"/>
	</g>
	<g>
		<path class="st0" d="M58.2,82.7c-7.3,0-14.3-3.1-19-8.5l-1-1l1-1c4.7-5.4,11.6-8.5,18.9-8.5c7.3,0,14.3,3.1,19,8.5l1,1l-1,1
			C72.5,79.6,65.6,82.7,58.2,82.7z M42.4,73.1c4.1,4.1,9.7,6.5,15.7,6.5c6.1,0,11.8-2.4,15.7-6.5c-4.1-4.1-9.7-6.5-15.7-6.5
			C52.2,66.6,46.5,68.9,42.4,73.1z"/>
		<path class="st0" d="M58.2,81.7c-7.1,0-13.7-3-18.2-8.2l-0.3-0.3l0.3-0.3c4.5-5.2,11.1-8.2,18.2-8.2s13.7,3,18.2,8.2l0.3,0.3
			l-0.3,0.3C71.9,78.7,65.2,81.7,58.2,81.7z M41,73.1c4.3,4.8,10.5,7.5,17.1,7.5s12.9-2.7,17.1-7.5c-4.3-4.8-10.5-7.5-17.1-7.5
			S45.3,68.4,41,73.1z"/>
	</g>
</g>
<g>
	<g>
		<path class="st0" d="M40.4,10c-1.2,0-2.4-0.5-3.3-1.4c-0.9-0.9-1.3-2-1.3-3.3s0.5-2.4,1.3-3.3c0.9-0.9,2-1.3,3.3-1.3
			s2.4,0.5,3.3,1.3C44.5,3,45,4.1,45,5.4c0,1.2-0.5,2.4-1.4,3.3C42.6,9.5,41.5,10,40.4,10z M40.4,3.7c-0.4,0-0.8,0.2-1,0.4l-0.1,0.1
			c-0.6,0.6-0.6,1.7,0,2.3c0.3,0.3,0.7,0.5,1.1,0.5s0.8-0.2,1.1-0.5c0.3-0.3,0.5-0.7,0.5-1.1c0-0.4-0.2-0.8-0.4-1.1
			C41.5,4,40.9,3.7,40.4,3.7z"/>
		<path class="st0" d="M40.4,9c-0.9,0-1.9-0.4-2.6-1.1c-1.4-1.4-1.4-3.7,0-5.1s3.7-1.4,5.1,0C43.6,3.5,44,4.4,44,5.4
			S43.6,7.3,42.9,8C42.2,8.6,41.3,9,40.4,9z M40.4,2.7c-0.7,0-1.4,0.3-1.8,0.8c-1,1-1,2.7,0,3.7s2.7,1,3.7,0
			c0.5-0.5,0.8-1.1,0.8-1.8S42.8,4,42.3,3.6S41,2.7,40.4,2.7z"/>
	</g>
	<g>
		<path class="st0" d="M49.6,15.1c-1.8,0-3.4-1.6-3.4-3.4s1.6-3.4,3.4-3.4S53,9.8,53,11.7C53,13.6,51.5,15.1,49.6,15.1z M49.6,11.3
			c-0.2,0-0.4,0.2-0.4,0.4s0.2,0.4,0.4,0.4s0.4-0.2,0.4-0.4S49.9,11.3,49.6,11.3z"/>
		<path class="st0" d="M49.6,14.1c-1.3,0-2.4-1.1-2.4-2.4s1.1-2.4,2.4-2.4s2.4,1.1,2.4,2.4S51,14.1,49.6,14.1z M49.6,10.3
			c-0.8,0-1.4,0.6-1.4,1.4s0.6,1.4,1.4,1.4s1.4-0.6,1.4-1.4S50.4,10.3,49.6,10.3z"/>
	</g>
	<g>
		<path class="st0" d="M31.1,15.1c-1.8,0-3.4-1.6-3.4-3.4s1.6-3.4,3.4-3.4c1.8,0,3.4,1.6,3.4,3.4S32.9,15.1,31.1,15.1z M31.1,11.3
			c-0.2,0-0.4,0.2-0.4,0.4s0.2,0.4,0.4,0.4s0.4-0.2,0.4-0.4C31.5,11.4,31.3,11.3,31.1,11.3z"/>
		<path class="st0" d="M31.1,14.1c-1.3,0-2.4-1.1-2.4-2.4s1.1-2.4,2.4-2.4c1.3,0,2.4,1.1,2.4,2.4S32.4,14.1,31.1,14.1z M31.1,10.3
			c-0.8,0-1.4,0.6-1.4,1.4s0.6,1.4,1.4,1.4s1.4-0.6,1.4-1.4S31.8,10.3,31.1,10.3z"/>
	</g>
</g>
</svg>
