<?xml version="1.0" encoding="utf-8"?>
<!-- Generator: Adobe Illustrator 24.0.1, SVG Export Plug-In . SVG Version: 6.00 Build 0)  -->
<svg version="1.1" id="Layer_1" xmlns="http://www.w3.org/2000/svg" xmlns:xlink="http://www.w3.org/1999/xlink" x="0px" y="0px"
	 viewBox="0 0 96 96" style="enable-background:new 0 0 96 96;" xml:space="preserve">
<style type="text/css">
	.st0{fill:#745A82;}
</style>
<path class="st0" d="M93.4,10.3c1.4,0,2.6-1.2,2.6-2.6V2.6C96,1.2,94.8,0,93.4,0H2.6C1.2,0,0,1.2,0,2.6v5.2c0,1.4,1.2,2.6,2.6,2.6
	h0.6V64H2.6C1.2,64,0,65.1,0,66.5v5.2c0,1.4,1.2,2.6,2.6,2.6h90.8c1.4,0,2.6-1.2,2.6-2.6v-5.2c0-1.4-1.2-2.6-2.6-2.6h-0.6V10.3H93.4
	z M89.7,67.6H6.3V6.7h83.5V67.6z M34.6,50.8V23.5c0-0.6,0.3-1.1,0.8-1.3c0.5-0.3,1.1-0.3,1.5,0l23.8,13.7c0.5,0.3,0.8,0.8,0.8,1.3
	s-0.3,1.1-0.8,1.3L36.9,52.1c-0.2,0.1-0.5,0.2-0.8,0.2s-0.5-0.1-0.8-0.2C34.9,51.9,34.6,51.4,34.6,50.8z"/>
</svg>
