<?xml version="1.0" encoding="utf-8"?>
<!-- Generator: Adobe Illustrator 24.0.1, SVG Export Plug-In . SVG Version: 6.00 Build 0)  -->
<svg version="1.1" id="Layer_1" xmlns="http://www.w3.org/2000/svg" xmlns:xlink="http://www.w3.org/1999/xlink" x="0px" y="0px" width="100%" height="100%" 
	 viewBox="0 0 96 96" style="enable-background:new 0 0 96 96;" xml:space="preserve">
<style type="text/css">
	.st0{fill:#745A82;}
</style>
<g>
	<path class="st0" d="M39,30c-5,0-9-4-9-9s4-9,9-9s9,4,9,9S44,30,39,30z M39,18c-1.7,0-3,1.3-3,3s1.3,3,3,3s3-1.3,3-3S40.7,18,39,18
		z"/>
	<path class="st0" d="M57,54c-5,0-9-4-9-9s4-9,9-9s9,4,9,9S62,54,57,54z M57,42c-1.6,0-3,1.4-3,3s1.4,3,3,3s3-1.4,3-3S58.6,42,57,42
		z"/>
	<path class="st0" d="M33,54c-0.7,0-1.4-0.2-1.9-0.7c-1.3-1.1-1.4-3-0.4-4.2l30-36c1.1-1.3,3-1.4,4.2-0.4c1.3,1.1,1.4,3,0.4,4.2
		l-30,36C34.7,53.6,33.9,54,33,54z"/>
	<path class="st0" d="M81,66H15c-1.7,0-3-1.3-3-3V51.9C4.7,48.6,0,41.2,0,33c0-8.2,4.7-15.6,12-18.9V3c0-1.7,1.3-3,3-3h66
		c1.7,0,3,1.3,3,3v11.1c7.3,3.4,12,10.7,12,18.9c0,8.2-4.7,15.6-12,18.9V63C84,64.7,82.7,66,81,66z M18,60h60V49.9
		c0-1.3,0.8-2.4,2-2.8c6-2,10-7.7,10-14.1c0-6.4-4-12-10-14.1c-1.2-0.4-2-1.6-2-2.8V6H18v10.1c0,1.3-0.8,2.4-2,2.8
		C10,21,6,26.6,6,33c0,6.4,4,12,10,14.1c1.2,0.4,2,1.5,2,2.8V60z"/>
</g>
</svg>
