<?xml version="1.0" encoding="utf-8"?>
<!-- Generator: Adobe Illustrator 24.0.1, SVG Export Plug-In . SVG Version: 6.00 Build 0)  -->
<svg version="1.1" id="Layer_1" xmlns="http://www.w3.org/2000/svg" xmlns:xlink="http://www.w3.org/1999/xlink" x="0px" y="0px"
	 viewBox="0 0 96 96" style="enable-background:new 0 0 96 96;" xml:space="preserve">
<style type="text/css">
	.st0{fill:#745A82;}
</style>
<path class="st0" d="M93.8,44.8h-23v4.4h20.7v40.3H9.7c0,0,0,0,0,0c-2.9,0-5.2-2.3-5.2-5.1c0-2.8,2.3-5.1,5.2-5.1s5.2,2.3,5.2,5.1
	c0,1.2,1,2.2,2.2,2.2s2.2-1,2.2-2.2V49.2h26.1v6.4c0,0.7,0.1,1.4,0.2,2.1l-17.4,16c-1.5,1.4-2.4,3.3-2.5,5.4c-0.1,2.1,0.7,4,2.1,5.5
	c1.4,1.5,3.4,2.4,5.5,2.4c0.1,0,0.2,0,0.2,0c2,0,3.9-0.7,5.3-2.1L58,67.2h11.8v12.2c0,2.1,0.8,4,2.3,5.5c1.5,1.4,3.5,2.3,5.5,2.3
	c0.2,0,0.3,0,0.5,0c4.1-0.3,7.3-3.7,7.3-7.9V61.1c0-5.1-4.2-9.3-9.4-9.3h-6.7v-2.5h0v-4.4h0v-6.7h18.7c3.8,0,6.9-3.1,6.9-6.8
	s-3.1-6.8-6.9-6.8H26.8c-3.8,0-6.9,3.1-6.9,6.8s3.1,6.8,6.9,6.8h18.7v6.7H19.3V42c0-5.3-4.3-9.6-9.7-9.6S0,36.7,0,42v42.5
	C0,89.7,4.3,94,9.7,94h7.4c0,0,0,0,0,0h76.7c1.2,0,2.2-1,2.2-2.2V47C96,45.8,95,44.8,93.8,44.8z M35.8,81.8
	c-0.6,0.6-1.5,0.9-2.4,0.9c-0.9,0-1.7-0.4-2.3-1c-0.6-0.6-0.9-1.5-0.9-2.3c0-0.9,0.4-1.7,1.1-2.3l16.2-14.9c1.2,1.8,3,3.2,5,4.1
	L35.8,81.8z M26.8,33.7c-1.3,0-2.4-1.1-2.4-2.4c0-1.3,1.1-2.4,2.4-2.4h61.1c1.3,0,2.4,1.1,2.4,2.4c0,1.3-1.1,2.4-2.4,2.4H66.9
	c-1.2,0-2.2,1-2.2,2.2v15.8h-6.2c-1.2,0-2.2,1-2.2,2.2s1,2.2,2.2,2.2h8.4h9c2.7,0,5,2.2,5,4.9v18.1c0,1.8-1.4,3.4-3.1,3.5
	c-1,0.1-1.9-0.3-2.6-1c-0.6-0.6-1-1.4-1-2.3V65c0-1.2-1-2.2-2.2-2.2H57.1c0,0,0,0,0,0h0c-4,0-7.2-3.2-7.2-7.1V35.9
	c0-1.2-1-2.2-2.2-2.2H26.8z M4.5,42c0-2.8,2.3-5.1,5.2-5.1s5.2,2.3,5.2,5.1v34.4c-1.5-0.9-3.3-1.5-5.2-1.5S6,75.4,4.5,76.4V42z"/>
<path class="st0" d="M57.3,22.5c6.3,0,11.4-5,11.4-11.2C68.7,5,63.6,0,57.3,0S45.9,5,45.9,11.2S51,22.5,57.3,22.5z M57.3,4.4
	c3.8,0,6.9,3.1,6.9,6.8c0,3.8-3.1,6.8-6.9,6.8c-3.8,0-6.9-3.1-6.9-6.8S53.5,4.4,57.3,4.4z"/>
</svg>
